<svg xmlns="http://www.w3.org/2000/svg" width="100%" height="2040" viewBox="0 0 1200 2040">
  <defs>
      <linearGradient id="gradient">
      <stop offset="0%" stop-color="#ebfcff" />
      <stop offset="53%" stop-color="#5199a6" />
      <stop offset="100%" stop-color="#d9f6ff" />
    </linearGradient>
    <style>
      .cls-1 {
        fill-rule: evenodd;
      }
    </style>
  </defs>
  <path fill="url(#gradient)" id="Color_Fill_3" data-name="Color Fill 3" class="cls-1" d="M913.75,4c12.088,0.037,21.955,15.181,30,23,20.75,20.168,58.72,83.955,55.625,138,18.165-8.247,40.275-28.253,61.245-18-6.38-26.33-30.12-66.9-48.12-65V76c0.62-.666,1.25-1.333,1.87-2,40.06,9.481,52.01,14.077,78.13,51,22.81-21.925,53.19-44.054,78.75-19v6c-0.62.333-1.25,0.667-1.88,1-22.79-4.255-55.09,34.469-37.5,75,6.83,15.715,27.82,32.8,35.63,5,3.28-11.682-2.05-26.773-2.5-39,10.99,1.283,15.77,21.11,21.87,31,13.03,21.117,13.13,64.869,13.13,115V535q-0.315,662.433-.63,1325v-2q-2.8-19.005-5.62-38c-10.88-43.83-30.23-74.89-62.5-85-6.9-2.16-16.31-4.79-23.13,0,0.42,0.33.84,0.67,1.25,1,11.2,17.98,21.16,28.3,26.88,56,7.8,37.77-17.4,89.4-30.63,92l0.63-3c31.17-37.82-12.2-115.43-53.13-95-39.49,19.72-42.71,95.35-1.87,117v1c-0.21.33-.42,0.67-0.63,1-38.93.98-78.633-34.09-78.12-96-26.6,14.39-59.914,60.61-26.875,102,9.029,11.31,21.212,18.48,34.375,23,3.125,0.33,6.25.67,9.375,1-21.218,34.21-72.546,56.92-115,57-10.273.02-47.673-.71-50.625-8,47.509,2.57,92.831-58.63,50-108-37.907-43.7-129.42-2.85-94.375,76,5.5,12.38,15.178,17.32,23.75,25v1H801.25c-36.262-18.96-104.677-72.39-73.125-159-28.051,1.46-40.439,46.62-43.75,88H683.75c-21.757-36.6-51.691-47.44-90-31,1.643,63.66-5.565,104.01-28.125,131-4.609,5.51-11.558,15.07-18.125,14v-1c11.463-25.96,12.169-88.68,6.875-125-11.493-78.85-30.913-127.12-86.875-136l-11.875-3c-30.991,6.44-59.9,59.02-51.875,122,2.538,19.92,9.7,35.35,11.875,52-10.966-4.62-23.054-23.36-38.125-30-38.243-16.84-74.332,20.16-88.75,53q-6.249,18-12.5,36h-0.625q-5-20.505-10-41c-4.431-24.35-4.307-52.42-4.375-84-22.09,27.48-47.189,47.65-81.875,23-5.741-4.08-12.84-8.36-15.625-17h-0.625c-1.617,38.48-35.24,116.09-58.75,125,0.417-1.33.833-2.67,1.25-4,9.8-6.76,13.558-29.45,17.5-46,14.912-62.6,12.681-233.35-33.125-235-0.417.33-.833,0.67-1.25,1v1q3.125,13.5,6.25,27c-19.653-2.83-41.817-31.53-61.875-7-30.81,37.68-37.764,179.29,0,205,33.791,23.01,48.376-107.58,9.375-105-10.8,10.63-8.668,31.11-16.25,42H25.625c-0.208-.67-0.417-1.33-0.625-2,3.679-25.33,1.419-44.04,18.75-49,5.418-1.55,15.725,8.4,16.875,7,19.446,27.79,12.051,100.39-10,114-8.272,5.1-19.3.68-25-4-11.764-9.65-20.416-26.26-25-47Q0.312,1873.5,0,1854c0-51.12.576-91.65,10.625-125Q5.313,1731.505,0,1734V369H0.625c37.931,19.971,88.792-2.716,111.25-38-46.046,17.661-74.561,8.348-100-40C3.718,275.5,0,267.37,0,237q0.312-9.5.625-19L12.5,224v-1C-3.977,174.152-8.076,56.067,17.5,22A48.308,48.308,0,0,1,38.75,6L55,9c20.166,21.13,26.579,97.822,5.625,116-10.51,9.118-25.95,1.812-30.625-13-1.6-5.082-5.722-29.766,0-33,0.538,17.772,7.657,36.528,16.25,42,44.418-9.024,13.4-155.226-23.125-94C0.318,65.226,6.67,199.721,40.625,226c19.6,15.168,37.343-9.922,56.25-13v3c-3.942,18.21-12.407,63.151-20.625,75-4.052-5.842-15.941-5.19-20.625-9L25,249l-14.375-4c5.3,33.83,37.85,73.768,70,64,8.532-2.592,18.253-7.174,26.875-11q0.312-1,.625-2c-1.529-15.224-2.966-28.344-.625-40,4.485-22.336,26.565-54.834,45-43,13.379,8.589,20.975,31.14,24.375,56v27c-2.184,13.484-6.7,23.623-10,35h3.75c10.731,3.484,32.813-7.951,46.875-13l18.125,1c10.362-1.878,14.422,14.682,21.875,6,2.672-12.084,5.31-17.473,3.75-33h3.125c17.908,20.439,42.806,18.535,56.875-7l1.25,1q-0.625,3-1.25,6c-11.178,8.206-9.822,35.235-1.25,46,14.685,18.441,44.105,25.569,66.875,14,14.539-7.388,34.228-37.151,16.25-60-7.518-9.555-18.759-9.55-26.25-18v-1c21.41-.162,40.228-0.064,52.5,14,20.559,23.561,26.808,96.005,77.5,64,8.581-5.418,16.229-21.874,19.375-33,3.025-10.7-3.028-26.829,1.25-30,10.431,29.4,52.238,31.058,76.25,42,9.529,4.342,22.427,1.26,33.75,6,11.079,4.638,31.338,4.262,43.125,3,62.663-6.71,105.682-9.492,146.875-48l-1.25-3c-4.3-3.926-3.946-14.805-7.5-23-14.156-32.639,2.822-98.994,33.125-98v6c-17.94,14.263-33.175,58.184-15,88,9.378,15.385,41.925,11.023,52.5,1,19.452-18.436,30.618-49.812,38.75-82,4.115-16.287,3.713-62.922,8.125-69l1.875-1,1.25,1c8.254,67.484,5.277,88.251-15.625,144,8.756-6.179,13.445-22.877,18.75-35,40.167-91.792,5.746-146.273-28.75-211V4Zm158.12,172c-13.84,8.851-25.62,9.186-40.62,23-8.68,7.99-16.24,21.763-23.75,32q-6.87,6.5-13.75,13c-16.171,17.769-31.719,41.229-50.625,54,12.222,47.6,92.655,55.494,100.625,1h2.5c-0.08,70.3,87.09,62.1,118.12,41,9.28-6.305,27.37-18.945,24.38-43-2.44-19.646-29.09-46.359-42.5-55-35.17-22.658-87.42-27.283-119.38,8q-16.56,22-33.12,44h-1.875v-5c20.755-61.236,68.565-114.513,113.745-102C1096.58,176.639,1080.98,178.8,1071.87,176ZM137.5,237c-10.678,9.671-26.67,33.287-6.25,50,4.849,3.968,12.14,2.972,15.625,6v1c-1.672,7.135-6.227,14.23-10.625,17v4c4.644,9.447,9.35,15.578,14.375,24l1.875-1C154.43,313.037,179.9,235.923,137.5,237Zm69.375,99c-3.675,2.508-9.753,3.4-11.875,2l-28.125,11v1c20.982,4.271,57.282,15.094,73.125-7C229.823,340.075,220.66,336.062,206.875,336Zm-190,1352c-1.25.67-2.5,1.33-3.75,2q-1.875,7.995-3.75,16c10.549-.26,21.207-7.87,25.625-15v-1Q25.938,1689,16.875,1688Z"/>
</svg>
