<svg xmlns="http://www.w3.org/2000/svg" width="1600" height="1700" viewBox="0 0 1600 1700" className="mysvg">
  <defs>
    <linearGradient id="gradient">
      <stop offset="0%" stop-color="#ebfcff" />
      <stop offset="53%" stop-color="#5199a6" />
      <stop offset="100%" stop-color="#d9f6ff" />
    </linearGradient>
    <style>
      .cls-1 {
        fill-rule: evenodd;
      }
      
    </style>
  </defs>
  <path  id="Color_Fill_1" fill="url(#gradient)" data-name="Color Fill 1" class="cls-1" d="M1219,4c43.84,1.482,116.84,82.1,113,134,26.7-8.791,55.97-21.3,82-15v-1c-10.8-35.014-42.85-39.525-64-56,11.15-19.541,100.71,21.931,106,41,27.55-33.094,74.7-27.857,105-20,0.33,1.666.67,3.334,1,5-0.67.667-1.33,1.333-2,2-28.41-2.85-74.55,24.561-51,63,8,13.054,32.8,26.59,45,9q2.505-6,5-12-2.505-12.5-5-25c0.33-.333.67-0.667,1-1,67.05,26.194,45,217,45,325q-0.495,546.446-1,1093c-10.76-43.15-56.34-128.5-123-100,48.95,26.23,48.72,96.72,0,123,26.6-50.11-18.29-102.29-78-79-42.63,16.63-49,85.18,3,96v1c-51.36,1.06-104.59-28.31-104-79-41.29,4.17-73.73,55.24-36,85,16.64,13.12,33.87,12.53,58,20-45.78,27.19-139.65,69.1-221,41,62.31,1.91,125.4-49.32,67-91-69.02-49.25-195.721,18.37-98,84-54.16-9.88-131.541-61.61-96-131-41.024.15-50.74,39.1-59,73h-1c-20.8-32.89-75.239-36.85-120-26,4.717,58.87-13.484,111.22-60,121,25.725-86.43,3.315-185.47-68-213-68.668-26.51-126.2,12.75-126,80,0.074,24.44,10.883,39.71,17,57h-1c-1-.33-2-0.67-3-1-57.359-62.59-160.9-8.73-181,50h-1q-8.5-25.5-17-51-1-27.495-2-55c-24.656,31.99-101.067,43.33-131,7-19.828,41.7-32.16,82.22-74,101,11.56-16.51,21.479-33.94,27-57,13.5-56.38,3.9-176.39-52-177v1c0.333,0.67.667,1.33,1,2l6,21c-26.264-3.63-53.048-23.83-78-9-40.268,23.93-55.312,141.17-13,169,51.933,34.16,75.007-81.7,23-83-12.708,8.87-16.145,22.25-22,35-1-.33-2-0.67-3-1,4.305-21.16,11.954-56.27,43-38,33.159,19.51,20.675,82.78-6,97-10.559,5.63-27.937,1.73-36-3-46.811-27.48-42.633-124.15-20-176Q7,1442,0,1444V308c49.451,11.493,120.884,3.232,148-31C69.548,301.864-1.341,266.312,0,182H1l15,4v-1C-1.721,132.239-15.14,40.692,35,12,41.54,8.258,56.782,2.481,70,7c26.365,9.013,41.921,67.754,16,93-31.38,30.563-43.322-6.224-50-33l1-1h2c6.54,14.359,8.821,28.192,23,35,54.605-3.52,23.3-130.466-32-77C-9.629,62.312,20.73,173.116,57,190c22.292,10.378,50.817-9.129,72-12-2.072,20.842-15.2,48.455-26,63-37.779,9.427-50.792-34.87-88-36,19.994,60.042,78.3,51.974,130,43-12.415-35.7,19.549-83.33,57-71,35.881,11.813,40.609,64.9,21,98l3,2c45.464-4.421,72.581-16.95,114-2,6.226-9.427,11.453-14.141,9-31,27.514,6.282,57.9,21.993,79-6-0.4,9.723-15.063,13.27-11,30,8.911,36.688,90.657,36.95,118,16,34.111-26.137-8.944-47.831-32-56,102.371,1.124,67.9,50.688,125,68,44,13.34,82.107-16.167,73-55,17.418,8.9,33.4,19.752,55,26,85.055,24.6,294.81,27.573,348-25-39.06-34.8-12.35-92.3,31-103,0.33,0.667.67,1.333,1,2-13.6,24.828-53.74,39.739-21,76,5.42,6,26.77,12.7,35,8,59.6,19.594,98.91-93.686,97-132l5-1c13.96,48.1,3.84,85.1-22,122,19.78-9.546,30.1-35.456,39-53,20.42-40.222,7.01-90.162-20-123C1240.81,28.037,1221.84,17.975,1219,4Zm213,142q-20.505,5-41,10-30,22.5-60,45-36.99,24-74,48c19.99,33.763,120.5,51.218,135,0l3,1c-0.53,75.167,211.15,48.865,190-6-22.24-57.682-149.8-67.021-198-46-25.26,11.016-40.68,35.266-64,47-0.33-.667-0.67-1.333-1-2,0.33-1.333.67-2.667,1-4,33.13-32.17,50.9-66.311,103-81l46-3C1460.15,147.706,1444.66,148.388,1432,146Zm41,9,6,2ZM184,198c-11.881,5.341-20.41,9.25-21,26,7.865,14.972,18.1,14.233,32,20v4l-14,13c4.581,9.552,10.839,17.049,21,21C216.016,255.223,228.812,198.494,184,198Zm86,83-46,10v1c28.784,7.238,71.033,8.152,95-5C306.311,281.382,289.41,280.712,270,281ZM28,1406c-3,.33-6,0.67-9,1l-7,15c15.561-.27,25.746-5.63,34-13Z"/>
</svg>
