<svg xmlns="http://www.w3.org/2000/svg" width="100%" height="2040" viewBox="0 0 1920 2040">
  <defs>
    <linearGradient id="gradient">
      <stop offset="0%" stop-color="#ebfcff" />
      <stop offset="53%" stop-color="#5199a6" />
      <stop offset="100%" stop-color="#d9f6ff" />
    </linearGradient>
    <style>
      .cls-1 {
        fill-rule: evenodd;
      }
    </style>
  </defs>
  <path fill="url(#gradient)" id="Color_Fill_3" data-name="Color Fill 3" class="cls-1" d="M1462,4c19.34,0.037,35.13,15.181,48,23,33.2,20.168,93.95,83.955,89,138,29.06-8.247,64.43-28.253,98-18-10.22-26.33-48.2-66.9-77-65V76l3-2c64.08,9.481,83.21,14.077,125,51,36.5-21.925,85.11-44.054,126-19v6l-3,1c-36.47-4.255-88.16,34.469-60,75,10.92,15.715,44.51,32.8,57,5,5.25-11.682-3.29-26.773-4-39,17.59,1.283,25.24,21.11,35,31,20.84,21.117,21,64.869,21,115V535q-0.495,662.433-1,1325v-2q-4.5-19.005-9-38c-17.41-43.83-48.36-74.89-100-85-11.04-2.16-26.09-4.79-37,0,0.67,0.33,1.33.67,2,1,17.91,17.98,33.85,28.3,43,56,12.48,37.77-27.83,89.4-49,92,0.33-1,.67-2,1-3,49.87-37.82-19.52-115.43-85-95-63.2,19.72-68.34,95.35-3,117v1l-1,1c-62.29.98-125.82-34.09-125-96-42.56,14.39-95.86,60.61-43,102,14.45,11.31,33.94,18.48,55,23q7.5,0.495,15,1c-33.95,34.21-116.07,56.92-184,57-16.44.02-76.28-.71-81-8,76.01,2.57,148.53-58.63,80-108-60.65-43.7-207.07-2.85-151,76,8.8,12.38,24.29,17.32,38,25v1h-3c-58.02-18.96-167.48-72.39-117-159-44.88,1.46-64.7,46.62-70,88h-1c-34.81-36.6-82.71-47.44-144-31,2.629,63.66-8.9,104.01-45,131-7.374,5.51-18.493,15.07-29,14v-1c18.341-25.96,19.47-88.68,11-125-18.389-78.85-49.461-127.12-139-136l-19-3c-49.585,6.44-95.842,59.02-83,122,4.061,19.92,15.527,35.35,19,52-17.546-4.62-36.887-23.36-61-30-61.189-16.84-118.931,20.16-142,53q-10,18-20,36h-1q-8-20.505-16-41c-7.09-24.35-6.891-52.42-7-84-35.345,27.48-75.5,47.65-131,23-9.186-4.08-20.544-8.36-25-17h-1c-2.587,38.48-56.384,116.09-94,125,0.667-1.33,1.333-2.67,2-4,15.673-6.76,21.693-29.45,28-46,23.859-62.6,20.29-233.35-53-235-0.667.33-1.333,0.67-2,1v1l10,27c-31.445-2.83-66.907-31.53-99-7-49.3,37.68-60.422,179.29,0,205,54.066,23.01,77.4-107.58,15-105-17.275,10.63-13.869,31.11-26,42H41c-0.333-.67-0.667-1.33-1-2,5.886-25.33,2.271-44.04,30-49,8.669-1.55,25.16,8.4,27,7,31.114,27.79,19.282,100.39-16,114-13.235,5.1-30.873.68-40-4-18.823-9.65-32.666-26.26-40-47q-0.5-19.5-1-39c0-51.12.921-91.65,17-125q-8.5,2.505-17,5V369H1c60.69,19.971,142.068-2.716,178-38-73.673,17.661-119.3,8.348-160-40C5.948,275.5,0,267.37,0,237q0.5-9.5,1-19l19,6v-1C-6.364,174.152-12.921,56.067,28,22,37.676,13.944,49.882,8.989,62,6L88,9c32.266,21.13,42.527,97.822,9,116-16.817,9.118-41.521,1.812-49-13-2.566-5.082-9.156-29.766,0-33,0.86,17.772,12.251,36.528,26,42,71.069-9.024,21.446-155.226-37-94C0.509,65.226,10.672,199.721,65,226c31.357,15.168,59.749-9.922,90-13v3c-6.307,18.21-19.852,63.151-33,75-6.484-5.842-25.506-5.19-33-9L40,249l-23-4c8.486,33.83,60.56,73.768,112,64,13.651-2.592,29.205-7.174,43-11l1-2c-2.447-15.224-4.745-28.344-1-40,7.177-22.336,42.5-54.834,72-43,21.407,8.589,33.56,31.14,39,56v27c-3.494,13.484-10.714,23.623-16,35h6c17.169,3.484,52.5-7.951,75-13l29,1c16.579-1.878,23.075,14.682,35,6,4.275-12.084,8.5-17.473,6-33h5c28.652,20.439,68.489,18.535,91-7l2,1q-1,3-2,6c-17.884,8.206-15.716,35.235-2,46,23.5,18.441,70.568,25.569,107,14,23.263-7.388,54.765-37.151,26-60-12.029-9.555-30.014-9.55-42-18v-1c34.256-.162,64.365-0.064,84,14,32.894,23.561,42.893,96.005,124,64,13.729-5.418,25.966-21.874,31-33,4.84-10.7-4.845-26.829,2-30,16.69,29.4,83.58,31.058,122,42,15.246,4.342,35.88,1.26,54,6,17.73,4.638,50.14,4.262,69,3,100.26-6.71,169.09-9.492,235-48-0.67-1-1.33-2-2-3-6.88-3.926-6.31-14.805-12-23-22.65-32.639,4.51-98.994,53-98v6c-28.7,14.263-53.08,58.184-24,88,15,15.385,67.08,11.023,84,1,31.12-18.436,48.99-49.812,62-82,6.58-16.287,5.94-62.922,13-69l3-1c0.67,0.333,1.33.667,2,1,13.21,67.484,8.44,88.251-25,144,14.01-6.179,21.51-22.877,30-35,64.27-91.792,9.19-146.273-46-211V4Zm253,172c-22.16,8.851-41,9.186-65,23-13.88,7.99-25.99,21.763-38,32q-10.995,6.5-22,13c-25.87,17.769-50.75,41.229-81,54,19.55,47.6,148.25,55.494,161,1h4c-0.12,70.3,139.34,62.1,189,41,14.84-6.305,43.78-18.945,39-43-3.9-19.646-46.54-46.359-68-55-56.28-22.658-139.87-27.283-191,8q-26.49,22-53,44h-3v-5c33.21-61.236,109.7-114.513,182-102C1754.52,176.639,1729.57,178.8,1715,176ZM220,237c-17.084,9.671-42.673,33.287-10,50,7.758,3.968,19.423,2.972,25,6v1c-2.676,7.135-9.963,14.23-17,17v4c7.431,9.447,14.959,15.578,23,24l3-1C247.088,313.037,287.843,235.923,220,237Zm111,99c-5.881,2.508-15.6,3.4-19,2l-45,11v1c33.571,4.271,91.651,15.094,117-7C367.717,340.075,353.056,336.062,331,336ZM27,1688c-2,.67-4,1.33-6,2q-3,7.995-6,16c16.878-.26,33.931-7.87,41-15v-1Q41.5,1689,27,1688Z"/>
</svg>
